<svg version="1" xmlns="http://www.w3.org/2000/svg" width="450.667" height="450.667" viewBox="0 0 338.000000 338.000000"><path d="M159.1 93.1c-10.5 5.4-19.7 7.9-31.5 8.8l-8.1.6-2.2 6c-3.2 9-4.7 20.9-4 32.7 1.7 30.8 19.3 58.1 46.8 72.3l8.9 4.6 5.3-2.6c29.5-13.9 48.7-42.2 50.4-74.3.7-11.8-.8-23.7-4-32.7l-2.2-6-8.5-.7c-13.4-1-27.5-5.3-37.1-11.4-2.1-1.3-4-2.3-4.1-2.2-.2.1-4.5 2.3-9.7 4.9zm15.7 9.8c7.6 3.8 18.6 7.1 28.6 8.5l8.1 1.2 1.3 4.9c2.1 8.1 2.6 21.5 1.2 30.4-.7 4.4-1.5 8.1-1.7 8.1-.8 0-11.4-6.8-18.3-11.8-7.1-5-10-9.8-8.2-13.7 1-2.1 1.8-2.5 5.5-2.5 2.3 0 5.2.7 6.4 1.5 1.5 1 2.4 1.2 2.8.5.9-1.5-.3-6.2-1.4-5.6-.4.3-1.7-.1-2.7-.9-1-.8-3.9-1.5-6.4-1.5-3.9-.1-4.2-.2-2.1-1.1 2.4-.9 5-3.6 5.1-5.2 0-.4-.9-.3-2.1.3-1.2.7-3.7.9-6.1.5-3.1-.6-3.9-.4-3.3.5.9 1.4.8 1.4-5.7-1.9-3.8-2-5.1-2.2-7-1.3-2.3 1.1-2.3 1.1-.1 1.1 1.5.1 2.3.9 2.8 3.1.6 2.8 1 3 5.3 3l4.7.1-3.9 2c-2.1 1.1-4.7 2.2-5.8 2.4-3.1.6-9.5 5.9-13.1 10.9l-2.1 3 4.4-3.1c2.5-1.6 6.1-3.8 8-4.8l3.5-1.8-3.1 3.5c-1.6 1.9-4 5.1-5.3 7.2-2.7 4.3-4 4.1-1.8-.3 2.3-4.6.4-3.8-5.8 2.4-3 3-5.7 5.5-5.9 5.5-.3 0 0-1.4.5-3.2 1.4-4.9.4-4.4-1.9 1-3 7-4.1 12.6-4.2 21.2l-.1 7.5-2.1-4c-1.2-2.2-2.7-6.5-3.3-9.5l-1.2-5.5-.7 4.2c-1.4 7.9 3.2 22.1 10 31 4.8 6.3.5 3.2-5.5-4-7.4-8.8-13.2-19.6-16.3-30.3-1.9-6.6-2.3-10.1-2.2-20.9.1-8 .7-14.9 1.6-18l1.4-5 8.7-1.2c9.6-1.4 21.2-5 28.5-8.8l5-2.5c.1 0 2.8 1.3 6 2.9zm1.7 15.1c.3.6-.1.7-.9.4-1.8-.7-2.1-1.4-.7-1.4.6 0 1.3.4 1.6 1zm30.5 39.6c2.2.9 4 2.1 4 2.8 0 3.1-11 22.6-12.7 22.6-.4 0-.4-.3 0-.6.3-.4-.7-2.6-2.4-5-1.6-2.4-2.8-4.4-2.5-4.4.3 0 2.2 1 4.3 2.2l3.8 2.2-2.7-3c-1.4-1.6-3.3-4.5-4-6.4l-1.5-3.5-1.6 3.2c-1 1.8-1.7 4.2-1.7 5.5 0 1.9-.2 2-1 .8-3.1-4.9.7-11.4 7.8-13.2 4.2-1 4.4-1.2 2.1-2-1.3-.6-4.6-.7-7.4-.4-4.7.5-4.9.4-2.5-.9 3.4-1.9 13-1.9 18 .1z"/><path d="M151.5 113.6c-3.2 1.7-5.4 3.4-4.2 3.4.5 0 2.1-.7 3.7-1.5s4.6-1.9 6.7-2.4l3.8-.9-3.5-.1c-1.9 0-4.8.6-6.5 1.5zM153.2 116.9c-5.7 1.9-12.3 7.5-14.9 12.5-1.3 2.5-.7 2.2 4.5-2.3 3.3-2.8 8.8-6.7 12.3-8.6 7.1-3.8 6.3-4.4-1.9-1.6zM154.1 123.1c-7 3.1-12.4 8.2-15.9 14.7-4.6 8.6-4 10.5 1.1 3.6 4.4-5.9 14-15.4 18.7-18.6 3.4-2.3 1.4-2.2-3.9.3zM159.5 126.7c-9 4.8-15.5 13.2-18.1 23.1-.8 3.5-1.4 6.6-1.1 6.8.3.3 2.3-3 4.6-7.2 4.6-8.5 8.3-13.7 14.5-20.2 4.4-4.6 4.5-4.8.1-2.5zM108.5 231c-.3.5-1.9 1-3.6 1-1.6 0-2.9.5-3 1.2 0 .7-.4.4-.9-.7-.6-1.3-.9 1.3-.9 7.6l-.1 9.6 4.2.1c5.2.2 7.4-.4 8.2-2.4.4-1.1 0-1.3-2.1-.8-1.9.5-3 .2-3.9-1-1.5-2.1-.8-4.6 1.2-4.6 2.1 0 1.7-2.7-.5-3.3-3.1-.8-2-4.2 1.3-4 1.6.1 2.6-.3 2.6-1.2 0-1.8-1.7-2.8-2.5-1.5zM178 230.9c0 .5-2.2 1.1-5 1.5-2.7.4-5.2 1.1-5.5 1.6-.4.6-1 .8-1.5.5-1.5-.9-2.3 6.3-1 9.4 1.8 4.5 9.5 7.4 14.4 5.5 1.1-.4 1.6-1.9 1.6-5 0-4-.2-4.4-2.5-4.4-2.2 0-2.5.4-2.5 3.5 0 2.3-.5 3.5-1.3 3.5-4.6 0-6.7-10.9-2.6-13 1.1-.7 3.2-.9 4.5-.6 1.9.5 2.4.3 2.4-1.4 0-1.1-.2-2-.5-2s-.5.4-.5.9zM134 232.9c0 .9-1.1 5.1-2.5 9.1s-2.5 7.4-2.5 7.5c0 0 1.1.2 2.6.3 1.5.1 2.3-.2 1.9-.8-1.4-2.2.6-5 3.6-5 2.4 0 3 .5 3.5 2.8s1.1 2.7 4 2.8c2.8 0 3.3-.3 2.8-1.5-.3-.9-1.9-5.1-3.6-9.4-1.6-4.2-3.2-7.7-3.5-7.7-.2 0-.1 1 .3 2.2.6 2.2.6 2.2-1.2.7-3.1-2.6-5.4-3.1-5.4-1zm4.3 6.1c.4 1.4 0 2-1.3 2s-1.6-.6-1.2-2.5c.5-2.8 1.7-2.6 2.5.5zM197.5 240.3v9.2l5.4.3c3.6.2 5.7-.1 6.2-1 1.4-2.2 1-2.6-2.3-2.4l-3.3.1v-7.8c0-4.2-.1-7.7-.3-7.7-.2 0-1.2.5-2.3 1-1.3.7-1.9.7-1.9 0 0-.5-.3-1-.7-1-.5 0-.8 4.2-.8 9.3zM226.5 240.4v9.5l5.5-.2c4.9-.1 6.9-.9 7-2.8 0-.4-1.5-.6-3.2-.5-2.9.1-3.3-.2-3.6-2.7-.3-2.2.1-2.7 1.7-2.7 1.2 0 2.1-.7 2.1-1.5s-.9-1.5-2-1.5c-1.5 0-2-.7-2-2.6 0-2.3.3-2.5 2.5-2 1.9.5 2.5.2 2.5-1 0-1.5-2.2-1.5-8.4.3-1.2.3-1.6.1-1.2-.6.4-.6.4-1.1-.1-1.1-.4 0-.8 4.2-.8 9.4z"/></svg>